<?xml version="1.0" encoding="Windows-1251" standalone="no"?>
<svg  version="1.1" viewbox="0 0 600 570" baseProfile = "full" xmlns = "http://www.w3.org/2000/svg" xmlns:xlink = "http://www.w3.org/1999/xlink" xmlns:ev="http://www.w3.org/2001/xml-events">
<svg  viewbox="0 0 500 500" width="500" height="500" x = "80" y = "20" > ""
<g id = "meshx2" style="stroke-width:0.3; stroke:gray">
<line x1="0" y1="500" x2="0" y2="0.00"/>
<line x1="10" y1="500" x2="10" y2="0.00"/>
<line x1="20" y1="500" x2="20" y2="0.00"/>
<line x1="30" y1="500" x2="30" y2="0.00"/>
<line x1="40" y1="500" x2="40" y2="0.00"/>
<line x1="50" y1="500" x2="50" y2="0.00"/>
<line x1="60.00" y1="500" x2="60.00" y2="0.00"/>
<line x1="70" y1="500" x2="70" y2="0.00"/>
<line x1="80" y1="500" x2="80" y2="0.00"/>
<line x1="90" y1="500" x2="90" y2="0.00"/>
<line x1="100.00" y1="500" x2="100.00" y2="0.00"/>
<line x1="110.00" y1="500" x2="110.00" y2="0.00"/>
<line x1="120.00" y1="500" x2="120.00" y2="0.00"/>
<line x1="130.00" y1="500" x2="130.00" y2="0.00"/>
<line x1="140.00" y1="500" x2="140.00" y2="0.00"/>
<line x1="150" y1="500" x2="150" y2="0.00"/>
<line x1="160" y1="500" x2="160" y2="0.00"/>
<line x1="170" y1="500" x2="170" y2="0.00"/>
<line x1="180.00" y1="500" x2="180.00" y2="0.00"/>
<line x1="190.00" y1="500" x2="190.00" y2="0.00"/>
<line x1="200.00" y1="500" x2="200.00" y2="0.00"/>
<line x1="210.00" y1="500" x2="210.00" y2="0.00"/>
<line x1="220.00" y1="500" x2="220.00" y2="0.00"/>
<line x1="230.00" y1="500" x2="230.00" y2="0.00"/>
<line x1="240.00" y1="500" x2="240.00" y2="0.00"/>
<line x1="250.00" y1="500" x2="250.00" y2="0.00"/>
<line x1="260.00" y1="500" x2="260.00" y2="0.00"/>
<line x1="270.00" y1="500" x2="270.00" y2="0.00"/>
<line x1="280.00" y1="500" x2="280.00" y2="0.00"/>
<line x1="290.00" y1="500" x2="290.00" y2="0.00"/>
<line x1="300.00" y1="500" x2="300.00" y2="0.00"/>
<line x1="310.00" y1="500" x2="310.00" y2="0.00"/>
<line x1="320.00" y1="500" x2="320.00" y2="0.00"/>
<line x1="330.00" y1="500" x2="330.00" y2="0.00"/>
<line x1="340.00" y1="500" x2="340.00" y2="0.00"/>
<line x1="350.00" y1="500" x2="350.00" y2="0.00"/>
<line x1="360.00" y1="500" x2="360.00" y2="0.00"/>
<line x1="370.00" y1="500" x2="370.00" y2="0.00"/>
<line x1="380.00" y1="500" x2="380.00" y2="0.00"/>
<line x1="390.00" y1="500" x2="390.00" y2="0.00"/>
<line x1="400.00" y1="500" x2="400.00" y2="0.00"/>
<line x1="410.00" y1="500" x2="410.00" y2="0.00"/>
<line x1="420.00" y1="500" x2="420.00" y2="0.00"/>
<line x1="430.00" y1="500" x2="430.00" y2="0.00"/>
<line x1="440.00" y1="500" x2="440.00" y2="0.00"/>
<line x1="450.00" y1="500" x2="450.00" y2="0.00"/>
<line x1="460.00" y1="500" x2="460.00" y2="0.00"/>
<line x1="470.00" y1="500" x2="470.00" y2="0.00"/>
<line x1="480.00" y1="500" x2="480.00" y2="0.00"/>
<line x1="490.00" y1="500" x2="490.00" y2="0.00"/>
</g>
<g id = "meshx" style="stroke-width:0.5; stroke:gray">
<line x1="0" y1="500" x2="0" y2="0.00"/>
<line x1="50" y1="500" x2="50" y2="0.00"/>
<line x1="100" y1="500" x2="100" y2="0.00"/>
<line x1="150.00" y1="500" x2="150.00" y2="0.00"/>
<line x1="200" y1="500" x2="200" y2="0.00"/>
<line x1="250" y1="500" x2="250" y2="0.00"/>
<line x1="300" y1="500" x2="300" y2="0.00"/>
<line x1="350" y1="500" x2="350" y2="0.00"/>
<line x1="400.00" y1="500" x2="400.00" y2="0.00"/>
<line x1="450.00" y1="500" x2="450.00" y2="0.00"/>
<line x1="500.00" y1="500" x2="500.00" y2="0.00"/>
</g>
<g id = "meshy2" style="stroke-width:0.3; stroke:gray">
<line x1="0" y1="491.67" x2="500" y2="491.67"/>
<line x1="0" y1="483.33" x2="500" y2="483.33"/>
<line x1="0" y1="475" x2="500" y2="475"/>
<line x1="0" y1="466.67" x2="500" y2="466.67"/>
<line x1="0" y1="458.33" x2="500" y2="458.33"/>
<line x1="0" y1="450" x2="500" y2="450"/>
<line x1="0" y1="441.67" x2="500" y2="441.67"/>
<line x1="0" y1="433.33" x2="500" y2="433.33"/>
<line x1="0" y1="425" x2="500" y2="425"/>
<line x1="0" y1="416.67" x2="500" y2="416.67"/>
<line x1="0" y1="408.33" x2="500" y2="408.33"/>
<line x1="0" y1="400" x2="500" y2="400"/>
<line x1="0" y1="391.67" x2="500" y2="391.67"/>
<line x1="0" y1="383.33" x2="500" y2="383.33"/>
<line x1="0" y1="375" x2="500" y2="375"/>
<line x1="0" y1="366.67" x2="500" y2="366.67"/>
<line x1="0" y1="358.33" x2="500" y2="358.33"/>
<line x1="0" y1="350" x2="500" y2="350"/>
<line x1="0" y1="341.67" x2="500" y2="341.67"/>
<line x1="0" y1="333.33" x2="500" y2="333.33"/>
<line x1="0" y1="325" x2="500" y2="325"/>
<line x1="0" y1="316.67" x2="500" y2="316.67"/>
<line x1="0" y1="308.33" x2="500" y2="308.33"/>
<line x1="0" y1="300" x2="500" y2="300"/>
<line x1="0" y1="291.67" x2="500" y2="291.67"/>
<line x1="0" y1="283.33" x2="500" y2="283.33"/>
<line x1="0" y1="275" x2="500" y2="275"/>
<line x1="0" y1="266.67" x2="500" y2="266.67"/>
<line x1="0" y1="258.33" x2="500" y2="258.33"/>
<line x1="0" y1="250" x2="500" y2="250"/>
<line x1="0" y1="241.67" x2="500" y2="241.67"/>
<line x1="0" y1="233.33" x2="500" y2="233.33"/>
<line x1="0" y1="225" x2="500" y2="225"/>
<line x1="0" y1="216.67" x2="500" y2="216.67"/>
<line x1="0" y1="208.33" x2="500" y2="208.33"/>
<line x1="0" y1="200" x2="500" y2="200"/>
<line x1="0" y1="191.67" x2="500" y2="191.67"/>
<line x1="0" y1="183.33" x2="500" y2="183.33"/>
<line x1="0" y1="175.00" x2="500" y2="175.00"/>
<line x1="0" y1="166.67" x2="500" y2="166.67"/>
<line x1="0" y1="158.33" x2="500" y2="158.33"/>
<line x1="0" y1="150.00" x2="500" y2="150.00"/>
<line x1="0" y1="141.67" x2="500" y2="141.67"/>
<line x1="0" y1="133.33" x2="500" y2="133.33"/>
<line x1="0" y1="125.00" x2="500" y2="125.00"/>
<line x1="0" y1="116.67" x2="500" y2="116.67"/>
<line x1="0" y1="108.33" x2="500" y2="108.33"/>
<line x1="0" y1="100.00" x2="500" y2="100.00"/>
<line x1="0" y1="91.67" x2="500" y2="91.67"/>
<line x1="0" y1="83.33" x2="500" y2="83.33"/>
<line x1="0" y1="75.00" x2="500" y2="75.00"/>
<line x1="0" y1="66.67" x2="500" y2="66.67"/>
<line x1="0" y1="58.33" x2="500" y2="58.33"/>
<line x1="0" y1="50.00" x2="500" y2="50.00"/>
<line x1="0" y1="41.67" x2="500" y2="41.67"/>
<line x1="0" y1="33.33" x2="500" y2="33.33"/>
<line x1="0" y1="25.00" x2="500" y2="25.00"/>
<line x1="0" y1="16.67" x2="500" y2="16.67"/>
<line x1="0" y1="8.33" x2="500" y2="8.33"/>
<line x1="0" y1="0.00" x2="500" y2="0.00"/>
</g>
<g id = "meshy" style="stroke-width:0.5; stroke:gray">
<line x1="0" y1="416.67" x2="500" y2="416.67"/>
<line x1="0" y1="333.33" x2="500" y2="333.33"/>
<line x1="0" y1="250" x2="500" y2="250"/>
<line x1="0" y1="166.67" x2="500" y2="166.67"/>
<line x1="0" y1="83.33" x2="500" y2="83.33"/>
<line x1="0" y1="0.00" x2="500" y2="0.00"/>
</g>
<g id = "Curves" style="stroke-width:2; stroke:black; fill:none">
<path d="M0 322.50 C 16.67 337.32, 34.09 353.94, 54.69 383.33"/>
<path d="M54.69 383.33 C 59.83 368.52, 64.33 355.79, 69.48 354.17"/>
<path d="M69.48 354.17 C 88.80 251.88, 146.90 154.17, 200 154.17"/>
<path d="M200 154.17 C 231.56 154.17, 289.45 178.04, 329.77 354.17"/>
<path d="M329.77 354.17 C 397.10 269.01, 451.13 155.04, 500 25.00"/>
<path d="M14.70 500 C 16.93 461.06, 15.25 393.83, 21.42 383.33"/>
<path d="M21.42 383.33 C 13.84 356.48, 6.77 337.49, 0 322.50"/>
<path d="M500 25.00 C 493.65 113.62, 490.83 227.64, 487.54 383.33"/>
<path d="M487.54 383.33 C 488.78 391.67, 488.40 416.67, 491.84 500"/>
<line x1="21.42" y1="383.33" x2="487.54" y2="383.33"/>
<line x1="69.48" y1="354.17" x2="488.16" y2="354.17"/>
</g>
<g id = "Elements" style="stroke-width:2; stroke:black; fill:none">
</g>
</svg>
<g id = "Points" style="stroke-width:0; fill:blue">
<circle cx="80" cy="342.50" r="4"/>
<text fill="black" x="85" y="337.50" dy="-0.1em" font-family="Arial" font-style = "italic"  text-anchor="start">a</text>
<text fill="black" x="575" y="40.00" dy="-0.1em" font-family="Arial" font-style = "italic"  text-anchor="end">b</text>
<text fill="black" x="134.69" y="408.33" dy="0.8em" font-family="Arial" font-style = "italic"  text-anchor="middle">c</text>
<circle cx="149.48" cy="374.17" r="4"/>
<text fill="black" x="149.48" y="379.17" dy="0.8em" font-family="Arial" font-style = "italic"  text-anchor="middle">d</text>
<text fill="black" x="280" y="169.17" dy="-0.1em" font-family="Arial" font-style = "italic"  text-anchor="middle">e</text>
<text fill="black" x="409.77" y="379.17" dy="0.8em" font-family="Arial" font-style = "italic"  text-anchor="middle">f</text>
<text fill="black" x="99.70" y="515" dy="-0.1em" font-family="Arial" font-style = "italic"  text-anchor="start">g</text>
<text fill="black" x="106.42" y="408.33" dy="0.8em" font-family="Arial" font-style = "italic"  text-anchor="start">h</text>
<text fill="black" x="562.54" y="408.33" dy="0.8em" font-family="Arial" font-style = "italic"  text-anchor="end">i</text>
<text fill="black" x="566.84" y="515" dy="-0.1em" font-family="Arial" font-style = "italic"  text-anchor="end">j</text>
<text fill="black" x="563.16" y="369.17" dy="-0.1em" font-family="Arial" font-style = "italic"  text-anchor="end">k</text>
<circle cx="130" cy="103.33" r="4"/>
<text fill="black" x="135" y="98.33" dy="-0.1em" font-family="Arial" font-style = "italic"  text-anchor="start">M</text>
<circle cx="220" cy="211.03" r="4"/>
<text fill="black" x="215" y="206.03" dy="-0.1em" font-family="Arial" font-style = "italic"  text-anchor="end">N</text>
<circle cx="230" cy="328.33" r="4"/>
<text fill="black" x="235" y="323.33" dy="-0.1em" font-family="Arial" font-style = "italic"  text-anchor="start">O</text>
<circle cx="540" cy="320" r="4"/>
<text fill="black" x="545" y="315" dy="-0.1em" font-family="Arial" font-style = "italic"  text-anchor="start">P</text>
<circle cx="280" cy="403.33" r="4"/>
<text fill="black" x="285" y="398.33" dy="-0.1em" font-family="Arial" font-style = "italic"  text-anchor="start">R</text>
</g>
<polyline points="80, 20, 80, 520, 580, 520, 580, 20" style="stroke-width:1; stroke:black; fill:none"/>
<g id = "xlabel" >
<text fill="black" x="80" y="525" dy="0.8em" font-family="Arial" text-anchor="middle">0</text>
<text fill="black" x="180" y="525" dy="0.8em" font-family="Arial" text-anchor="middle">20</text>
<text fill="black" x="280" y="525" dy="0.8em" font-family="Arial" text-anchor="middle">40</text>
<text fill="black" x="380.00" y="525" dy="0.8em" font-family="Arial" text-anchor="middle">60</text>
<text fill="black" x="480" y="525" dy="0.8em" font-family="Arial" text-anchor="middle">80</text>
<text fill="black" x="580" y="525" dy="0.8em" font-family="Arial" text-anchor="middle">100</text>
</g>
<g id = "ylabel" >
<text fill="black" x="75" y="520" dy="0.4em" font-family="Arial" text-anchor="end">1100</text>
<text fill="black" x="75" y="436.67" dy="0.4em" font-family="Arial" text-anchor="end">1200</text>
<text fill="black" x="75" y="353.33" dy="0.4em" font-family="Arial" text-anchor="end">1300</text>
<text fill="black" x="75" y="270" dy="0.4em" font-family="Arial" text-anchor="end">1400</text>
<text fill="black" x="75" y="186.67" dy="0.4em" font-family="Arial" text-anchor="end">1500</text>
<text fill="black" x="75" y="103.33" dy="0.4em" font-family="Arial" text-anchor="end">1600</text>
<text fill="black" x="75" y="20.00" dy="0.4em" font-family="Arial" text-anchor="end">1700</text>
</g>
<text fill="black" x="45" y="25.00" dy="0.8em" font-family="Arial" text-anchor="end"><tspan font-style="italic" >T</tspan>, °C</text>
<text fill="black" x="80" y="520" dy="0.8em" font-family="Arial" text-anchor="start"><tspan dy="2.5em">Gd</tspan></text>
<text fill="black" x="580" y="520" dy="0.8em" font-family="Arial" text-anchor="end"><tspan dy="2.5em">Ti</tspan></text>
<text fill="black" x="330" y="520" dy="0.8em" font-family="Arial" text-anchor="middle"><tspan dy="2.5em">Содержание Ti, % мол.</tspan></text>
</svg>
