<?xml version="1.0" encoding="Windows-1251" standalone="no"?>
<svg  version="1.1" viewbox="0 0 600 570" baseProfile = "full" xmlns = "http://www.w3.org/2000/svg" xmlns:xlink = "http://www.w3.org/1999/xlink" xmlns:ev="http://www.w3.org/2001/xml-events">
<svg  viewbox="0 0 500 500" width="500" height="500" x = "80" y = "20" > ""
<g id = "meshx2" style="stroke-width:0.3; stroke:gray">
<line x1="0" y1="500" x2="0" y2="0.00"/>
<line x1="10" y1="500" x2="10" y2="0.00"/>
<line x1="20" y1="500" x2="20" y2="0.00"/>
<line x1="30" y1="500" x2="30" y2="0.00"/>
<line x1="40" y1="500" x2="40" y2="0.00"/>
<line x1="50" y1="500" x2="50" y2="0.00"/>
<line x1="60.00" y1="500" x2="60.00" y2="0.00"/>
<line x1="70" y1="500" x2="70" y2="0.00"/>
<line x1="80" y1="500" x2="80" y2="0.00"/>
<line x1="90" y1="500" x2="90" y2="0.00"/>
<line x1="100.00" y1="500" x2="100.00" y2="0.00"/>
<line x1="110.00" y1="500" x2="110.00" y2="0.00"/>
<line x1="120.00" y1="500" x2="120.00" y2="0.00"/>
<line x1="130.00" y1="500" x2="130.00" y2="0.00"/>
<line x1="140.00" y1="500" x2="140.00" y2="0.00"/>
<line x1="150" y1="500" x2="150" y2="0.00"/>
<line x1="160" y1="500" x2="160" y2="0.00"/>
<line x1="170" y1="500" x2="170" y2="0.00"/>
<line x1="180.00" y1="500" x2="180.00" y2="0.00"/>
<line x1="190.00" y1="500" x2="190.00" y2="0.00"/>
<line x1="200.00" y1="500" x2="200.00" y2="0.00"/>
<line x1="210.00" y1="500" x2="210.00" y2="0.00"/>
<line x1="220.00" y1="500" x2="220.00" y2="0.00"/>
<line x1="230.00" y1="500" x2="230.00" y2="0.00"/>
<line x1="240.00" y1="500" x2="240.00" y2="0.00"/>
<line x1="250.00" y1="500" x2="250.00" y2="0.00"/>
<line x1="260.00" y1="500" x2="260.00" y2="0.00"/>
<line x1="270.00" y1="500" x2="270.00" y2="0.00"/>
<line x1="280.00" y1="500" x2="280.00" y2="0.00"/>
<line x1="290.00" y1="500" x2="290.00" y2="0.00"/>
<line x1="300.00" y1="500" x2="300.00" y2="0.00"/>
<line x1="310.00" y1="500" x2="310.00" y2="0.00"/>
<line x1="320.00" y1="500" x2="320.00" y2="0.00"/>
<line x1="330.00" y1="500" x2="330.00" y2="0.00"/>
<line x1="340.00" y1="500" x2="340.00" y2="0.00"/>
<line x1="350.00" y1="500" x2="350.00" y2="0.00"/>
<line x1="360.00" y1="500" x2="360.00" y2="0.00"/>
<line x1="370.00" y1="500" x2="370.00" y2="0.00"/>
<line x1="380.00" y1="500" x2="380.00" y2="0.00"/>
<line x1="390.00" y1="500" x2="390.00" y2="0.00"/>
<line x1="400.00" y1="500" x2="400.00" y2="0.00"/>
<line x1="410.00" y1="500" x2="410.00" y2="0.00"/>
<line x1="420.00" y1="500" x2="420.00" y2="0.00"/>
<line x1="430.00" y1="500" x2="430.00" y2="0.00"/>
<line x1="440.00" y1="500" x2="440.00" y2="0.00"/>
<line x1="450.00" y1="500" x2="450.00" y2="0.00"/>
<line x1="460.00" y1="500" x2="460.00" y2="0.00"/>
<line x1="470.00" y1="500" x2="470.00" y2="0.00"/>
<line x1="480.00" y1="500" x2="480.00" y2="0.00"/>
<line x1="490.00" y1="500" x2="490.00" y2="0.00"/>
</g>
<g id = "meshx" style="stroke-width:0.5; stroke:gray">
<line x1="0" y1="500" x2="0" y2="0.00"/>
<line x1="50" y1="500" x2="50" y2="0.00"/>
<line x1="100" y1="500" x2="100" y2="0.00"/>
<line x1="150.00" y1="500" x2="150.00" y2="0.00"/>
<line x1="200" y1="500" x2="200" y2="0.00"/>
<line x1="250" y1="500" x2="250" y2="0.00"/>
<line x1="300" y1="500" x2="300" y2="0.00"/>
<line x1="350" y1="500" x2="350" y2="0.00"/>
<line x1="400.00" y1="500" x2="400.00" y2="0.00"/>
<line x1="450.00" y1="500" x2="450.00" y2="0.00"/>
<line x1="500.00" y1="500" x2="500.00" y2="0.00"/>
</g>
<g id = "meshy2" style="stroke-width:0.3; stroke:gray">
<line x1="0" y1="493.33" x2="500" y2="493.33"/>
<line x1="0" y1="486.67" x2="500" y2="486.67"/>
<line x1="0" y1="480" x2="500" y2="480"/>
<line x1="0" y1="473.33" x2="500" y2="473.33"/>
<line x1="0" y1="466.67" x2="500" y2="466.67"/>
<line x1="0" y1="460" x2="500" y2="460"/>
<line x1="0" y1="453.33" x2="500" y2="453.33"/>
<line x1="0" y1="446.67" x2="500" y2="446.67"/>
<line x1="0" y1="440" x2="500" y2="440"/>
<line x1="0" y1="433.33" x2="500" y2="433.33"/>
<line x1="0" y1="426.67" x2="500" y2="426.67"/>
<line x1="0" y1="420" x2="500" y2="420"/>
<line x1="0" y1="413.33" x2="500" y2="413.33"/>
<line x1="0" y1="406.67" x2="500" y2="406.67"/>
<line x1="0" y1="400" x2="500" y2="400"/>
<line x1="0" y1="393.33" x2="500" y2="393.33"/>
<line x1="0" y1="386.67" x2="500" y2="386.67"/>
<line x1="0" y1="380" x2="500" y2="380"/>
<line x1="0" y1="373.33" x2="500" y2="373.33"/>
<line x1="0" y1="366.67" x2="500" y2="366.67"/>
<line x1="0" y1="360" x2="500" y2="360"/>
<line x1="0" y1="353.33" x2="500" y2="353.33"/>
<line x1="0" y1="346.67" x2="500" y2="346.67"/>
<line x1="0" y1="340" x2="500" y2="340"/>
<line x1="0" y1="333.33" x2="500" y2="333.33"/>
<line x1="0" y1="326.67" x2="500" y2="326.67"/>
<line x1="0" y1="320" x2="500" y2="320"/>
<line x1="0" y1="313.33" x2="500" y2="313.33"/>
<line x1="0" y1="306.67" x2="500" y2="306.67"/>
<line x1="0" y1="300" x2="500" y2="300"/>
<line x1="0" y1="293.33" x2="500" y2="293.33"/>
<line x1="0" y1="286.67" x2="500" y2="286.67"/>
<line x1="0" y1="280" x2="500" y2="280"/>
<line x1="0" y1="273.33" x2="500" y2="273.33"/>
<line x1="0" y1="266.67" x2="500" y2="266.67"/>
<line x1="0" y1="260" x2="500" y2="260"/>
<line x1="0" y1="253.33" x2="500" y2="253.33"/>
<line x1="0" y1="246.67" x2="500" y2="246.67"/>
<line x1="0" y1="240.00" x2="500" y2="240.00"/>
<line x1="0" y1="233.33" x2="500" y2="233.33"/>
<line x1="0" y1="226.67" x2="500" y2="226.67"/>
<line x1="0" y1="220.00" x2="500" y2="220.00"/>
<line x1="0" y1="213.33" x2="500" y2="213.33"/>
<line x1="0" y1="206.67" x2="500" y2="206.67"/>
<line x1="0" y1="200.00" x2="500" y2="200.00"/>
<line x1="0" y1="193.33" x2="500" y2="193.33"/>
<line x1="0" y1="186.67" x2="500" y2="186.67"/>
<line x1="0" y1="180.00" x2="500" y2="180.00"/>
<line x1="0" y1="173.33" x2="500" y2="173.33"/>
<line x1="0" y1="166.67" x2="500" y2="166.67"/>
<line x1="0" y1="160.00" x2="500" y2="160.00"/>
<line x1="0" y1="153.33" x2="500" y2="153.33"/>
<line x1="0" y1="146.67" x2="500" y2="146.67"/>
<line x1="0" y1="140.00" x2="500" y2="140.00"/>
<line x1="0" y1="133.33" x2="500" y2="133.33"/>
<line x1="0" y1="126.67" x2="500" y2="126.67"/>
<line x1="0" y1="120.00" x2="500" y2="120.00"/>
<line x1="0" y1="113.33" x2="500" y2="113.33"/>
<line x1="0" y1="106.67" x2="500" y2="106.67"/>
<line x1="0" y1="100.00" x2="500" y2="100.00"/>
<line x1="0" y1="93.33" x2="500" y2="93.33"/>
<line x1="0" y1="86.67" x2="500" y2="86.67"/>
<line x1="0" y1="80.00" x2="500" y2="80.00"/>
<line x1="0" y1="73.33" x2="500" y2="73.33"/>
<line x1="0" y1="66.67" x2="500" y2="66.67"/>
<line x1="0" y1="60.00" x2="500" y2="60.00"/>
<line x1="0" y1="53.33" x2="500" y2="53.33"/>
<line x1="0" y1="46.67" x2="500" y2="46.67"/>
<line x1="0" y1="40.00" x2="500" y2="40.00"/>
<line x1="0" y1="33.33" x2="500" y2="33.33"/>
<line x1="0" y1="26.67" x2="500" y2="26.67"/>
<line x1="0" y1="20.00" x2="500" y2="20.00"/>
<line x1="0" y1="13.33" x2="500" y2="13.33"/>
<line x1="0" y1="6.67" x2="500" y2="6.67"/>
<line x1="0" y1="0.00" x2="500" y2="0.00"/>
</g>
<g id = "meshy" style="stroke-width:0.5; stroke:gray">
<line x1="0" y1="433.33" x2="500" y2="433.33"/>
<line x1="0" y1="366.67" x2="500" y2="366.67"/>
<line x1="0" y1="300" x2="500" y2="300"/>
<line x1="0" y1="233.33" x2="500" y2="233.33"/>
<line x1="0" y1="166.67" x2="500" y2="166.67"/>
<line x1="0" y1="100.00" x2="500" y2="100.00"/>
<line x1="0" y1="33.33" x2="500" y2="33.33"/>
</g>
<g id = "Curves" style="stroke-width:2; stroke:black; fill:none">
<path d="M0 24.00 C 92.09 64.33, 158.46 134.31, 200 235.33"/>
<path d="M200 235.33 C 216.13 227.01, 233.34 224.25, 250 224.67"/>
<path d="M250 224.67 C 308.88 226.42, 362.50 242.38, 395 315.33"/>
<path d="M395 315.33 C 432.07 362.25, 442.92 399.48, 450 435.33"/>
<path d="M450 435.33 C 465.66 430.66, 482.53 426.26, 500.00 422.00"/>
<path d="M0 24.00 C 9.76 47.17, 18.46 132.81, 17.50 235.33"/>
<path d="M17.50 235.33 C 12.79 374.20, 12.72 373.72, 7.50 500"/>
<line x1="17.50" y1="235.33" x2="250" y2="235.33"/>
<line x1="250" y1="224.67" x2="250" y2="500"/>
<line x1="250" y1="315.33" x2="395" y2="315.33"/>
<line x1="332.50" y1="315.33" x2="332.50" y2="500"/>
<line x1="332.50" y1="435.33" x2="500" y2="435.33"/>
</g>
</svg>
<g id = "Phases_lines" style="stroke-width:2; stroke:red; fill:red">
<line x1="90" y1="286.67" x2="30.00" y2="286.67" stroke="red"/>
<circle cx="90" cy="286.67" r="2"/>
<line x1="570" y1="450" x2="610" y2="443.33" stroke="red"/>
<circle cx="570" cy="450" r="2"/>
</g>
<g id = "Phases_lines" style="stroke-width:2; stroke:red; fill:white">
<circle cx="370" cy="420" r="15"/>
<circle cx="380" cy="120.00" r="15"/>
<circle cx="490" cy="486.67" r="15"/>
<circle cx="30.00" cy="286.67" r="15"/>
<circle cx="470" cy="413.33" r="15"/>
<circle cx="610" cy="443.33" r="15"/>
<circle cx="155" cy="186.67" r="15"/>
</g>
<g id = "Phases_caption" style="font-size:24; font-weight:bold">
<text fill="red" x="370" y="420" dy="0.4em" font-family="Times" text-anchor="middle">1</text>
<text fill="red" x="380" y="120.00" dy="0.4em" font-family="Times" text-anchor="middle">2</text>
<text fill="red" x="490" y="486.67" dy="0.4em" font-family="Times" text-anchor="middle">3</text>
<text fill="red" x="30.00" y="286.67" dy="0.4em" font-family="Times" text-anchor="middle">4</text>
<text fill="red" x="470" y="413.33" dy="0.4em" font-family="Times" text-anchor="middle">5</text>
<text fill="red" x="610" y="443.33" dy="0.4em" font-family="Times" text-anchor="middle">6</text>
<text fill="red" x="155" y="186.67" dy="0.4em" font-family="Times" text-anchor="middle">7</text>
</g>
<g id = "Points" style="stroke-width:0; fill:blue">
<circle cx="580.00" cy="442.00" r="4"/>
<circle cx="280" cy="255.33" r="4"/>
<circle cx="380" cy="335.33" r="4"/>
<text fill="black" x="380" y="340.33" dy="0.8em" font-family="Times" font-style = "italic"  text-anchor="middle">P</text>
<circle cx="130" cy="70.39" r="4"/>
<text fill="black" x="135" y="65.39" dy="-0.1em" font-family="Times" font-style = "italic"  text-anchor="start">R</text>
<circle cx="180" cy="453.33" r="4"/>
<text fill="black" x="185" y="448.33" dy="-0.1em" font-family="Times" font-style = "italic"  text-anchor="start">S</text>
<circle cx="330" cy="53.33" r="4"/>
<text fill="black" x="335" y="48.33" dy="-0.1em" font-family="Times" font-style = "italic"  text-anchor="start">T</text>
</g>
<g id = "Points" style="stroke-width:0; fill:blue">
<text fill="black" x="85" y="39.00" dy="-0.1em" font-family="Times" font-style = "italic"  text-anchor="start">a</text>
<text fill="black" x="575.00" y="437.00" dy="-0.1em" font-family="Times" font-style = "italic"  text-anchor="end">b</text>
<text fill="black" x="280" y="260.33" dy="0.8em" font-family="Times" font-style = "italic"  text-anchor="middle">c</text>
<text fill="black" x="330" y="239.67" dy="-0.1em" font-family="Times" font-style = "italic"  text-anchor="middle">d</text>
<text fill="black" x="480" y="330.33" dy="-0.1em" font-family="Times" font-style = "italic"  text-anchor="start">e</text>
<text fill="black" x="530" y="460.33" dy="0.8em" font-family="Times" font-style = "italic"  text-anchor="middle">f</text>
<text fill="black" x="102.50" y="250.33" dy="-0.1em" font-family="Times" font-style = "italic"  text-anchor="start">g</text>
<text fill="black" x="92.50" y="525" dy="0.8em" font-family="Times" font-style = "italic"  text-anchor="start">h</text>
<text fill="black" x="325" y="260.33" dy="0.8em" font-family="Times" font-style = "italic"  text-anchor="end">i</text>
<text fill="black" x="325" y="330.33" dy="-0.1em" font-family="Times" font-style = "italic"  text-anchor="end">j</text>
<text fill="black" x="407.50" y="330.33" dy="-0.1em" font-family="Times" font-style = "italic"  text-anchor="end">k</text>
<text fill="black" x="417.50" y="450.33" dy="-0.1em" font-family="Times" font-style = "italic"  text-anchor="start">l</text>
<text fill="black" x="575" y="460.33" dy="0.8em" font-family="Times" font-style = "italic"  text-anchor="end">m</text>
</g>
<polyline points="80, 20, 80, 520, 580, 520, 580, 20" style="stroke-width:1; stroke:black; fill:none"/>
<g id = "xlabel" >
<text fill="black" x="80" y="525" dy="0.8em" font-family="Times" text-anchor="middle">0</text>
<text fill="black" x="180" y="525" dy="0.8em" font-family="Times" text-anchor="middle">20</text>
<text fill="black" x="280" y="525" dy="0.8em" font-family="Times" text-anchor="middle">40</text>
<text fill="black" x="380.00" y="525" dy="0.8em" font-family="Times" text-anchor="middle">60</text>
<text fill="black" x="480" y="525" dy="0.8em" font-family="Times" text-anchor="middle">80</text>
<text fill="black" x="580" y="525" dy="0.8em" font-family="Times" text-anchor="middle">100</text>
</g>
<g id = "ylabel" >
<text fill="black" x="75" y="520" dy="0.4em" font-family="Times" text-anchor="end">700</text>
<text fill="black" x="75" y="453.33" dy="0.4em" font-family="Times" text-anchor="end">800</text>
<text fill="black" x="75" y="386.67" dy="0.4em" font-family="Times" text-anchor="end">900</text>
<text fill="black" x="75" y="320" dy="0.4em" font-family="Times" text-anchor="end">1000</text>
<text fill="black" x="75" y="253.33" dy="0.4em" font-family="Times" text-anchor="end">1100</text>
<text fill="black" x="75" y="186.67" dy="0.4em" font-family="Times" text-anchor="end">1200</text>
<text fill="black" x="75" y="120.00" dy="0.4em" font-family="Times" text-anchor="end">1300</text>
<text fill="black" x="75" y="53.33" dy="0.4em" font-family="Times" text-anchor="end">1400</text>
</g>
<text fill="black" x="45" y="25.00" dy="0.8em" font-family="Times" text-anchor="end"><tspan font-style="italic" >T</tspan>, °C</text>
<text fill="black" x="80" y="520" dy="0.8em" font-family="Times" text-anchor="start"><tspan dy="2.5em">Si</tspan></text>
<text fill="black" x="580" y="520" dy="0.8em" font-family="Times" text-anchor="end"><tspan dy="2.5em">As</tspan></text>
<text fill="black" x="330" y="520" dy="0.8em" font-family="Times" text-anchor="middle"><tspan dy="2.5em">Содержание As, % мол.</tspan></text>
</svg>
