<?xml version="1.0" encoding="Windows-1251" standalone="no"?>
<svg  version="1.1" viewbox="0 0 600 570" baseProfile = "full" xmlns = "http://www.w3.org/2000/svg" xmlns:xlink = "http://www.w3.org/1999/xlink" xmlns:ev="http://www.w3.org/2001/xml-events">
<svg  viewbox="0 0 500 500" width="500" height="500" x = "80" y = "20" > ""
<g id = "meshx2" style="stroke-width:0.3; stroke:gray">
<line x1="0" y1="500" x2="0" y2="0.00"/>
<line x1="10" y1="500" x2="10" y2="0.00"/>
<line x1="20" y1="500" x2="20" y2="0.00"/>
<line x1="30" y1="500" x2="30" y2="0.00"/>
<line x1="40" y1="500" x2="40" y2="0.00"/>
<line x1="50" y1="500" x2="50" y2="0.00"/>
<line x1="60.00" y1="500" x2="60.00" y2="0.00"/>
<line x1="70" y1="500" x2="70" y2="0.00"/>
<line x1="80" y1="500" x2="80" y2="0.00"/>
<line x1="90" y1="500" x2="90" y2="0.00"/>
<line x1="100.00" y1="500" x2="100.00" y2="0.00"/>
<line x1="110.00" y1="500" x2="110.00" y2="0.00"/>
<line x1="120.00" y1="500" x2="120.00" y2="0.00"/>
<line x1="130.00" y1="500" x2="130.00" y2="0.00"/>
<line x1="140.00" y1="500" x2="140.00" y2="0.00"/>
<line x1="150" y1="500" x2="150" y2="0.00"/>
<line x1="160" y1="500" x2="160" y2="0.00"/>
<line x1="170" y1="500" x2="170" y2="0.00"/>
<line x1="180.00" y1="500" x2="180.00" y2="0.00"/>
<line x1="190.00" y1="500" x2="190.00" y2="0.00"/>
<line x1="200.00" y1="500" x2="200.00" y2="0.00"/>
<line x1="210.00" y1="500" x2="210.00" y2="0.00"/>
<line x1="220.00" y1="500" x2="220.00" y2="0.00"/>
<line x1="230.00" y1="500" x2="230.00" y2="0.00"/>
<line x1="240.00" y1="500" x2="240.00" y2="0.00"/>
<line x1="250.00" y1="500" x2="250.00" y2="0.00"/>
<line x1="260.00" y1="500" x2="260.00" y2="0.00"/>
<line x1="270.00" y1="500" x2="270.00" y2="0.00"/>
<line x1="280.00" y1="500" x2="280.00" y2="0.00"/>
<line x1="290.00" y1="500" x2="290.00" y2="0.00"/>
<line x1="300.00" y1="500" x2="300.00" y2="0.00"/>
<line x1="310.00" y1="500" x2="310.00" y2="0.00"/>
<line x1="320.00" y1="500" x2="320.00" y2="0.00"/>
<line x1="330.00" y1="500" x2="330.00" y2="0.00"/>
<line x1="340.00" y1="500" x2="340.00" y2="0.00"/>
<line x1="350.00" y1="500" x2="350.00" y2="0.00"/>
<line x1="360.00" y1="500" x2="360.00" y2="0.00"/>
<line x1="370.00" y1="500" x2="370.00" y2="0.00"/>
<line x1="380.00" y1="500" x2="380.00" y2="0.00"/>
<line x1="390.00" y1="500" x2="390.00" y2="0.00"/>
<line x1="400.00" y1="500" x2="400.00" y2="0.00"/>
<line x1="410.00" y1="500" x2="410.00" y2="0.00"/>
<line x1="420.00" y1="500" x2="420.00" y2="0.00"/>
<line x1="430.00" y1="500" x2="430.00" y2="0.00"/>
<line x1="440.00" y1="500" x2="440.00" y2="0.00"/>
<line x1="450.00" y1="500" x2="450.00" y2="0.00"/>
<line x1="460.00" y1="500" x2="460.00" y2="0.00"/>
<line x1="470.00" y1="500" x2="470.00" y2="0.00"/>
<line x1="480.00" y1="500" x2="480.00" y2="0.00"/>
<line x1="490.00" y1="500" x2="490.00" y2="0.00"/>
</g>
<g id = "meshx" style="stroke-width:0.5; stroke:gray">
<line x1="0" y1="500" x2="0" y2="0.00"/>
<line x1="50" y1="500" x2="50" y2="0.00"/>
<line x1="100" y1="500" x2="100" y2="0.00"/>
<line x1="150.00" y1="500" x2="150.00" y2="0.00"/>
<line x1="200" y1="500" x2="200" y2="0.00"/>
<line x1="250" y1="500" x2="250" y2="0.00"/>
<line x1="300" y1="500" x2="300" y2="0.00"/>
<line x1="350" y1="500" x2="350" y2="0.00"/>
<line x1="400.00" y1="500" x2="400.00" y2="0.00"/>
<line x1="450.00" y1="500" x2="450.00" y2="0.00"/>
<line x1="500.00" y1="500" x2="500.00" y2="0.00"/>
</g>
<g id = "meshy2" style="stroke-width:0.3; stroke:gray">
<line x1="0" y1="492.86" x2="500" y2="492.86"/>
<line x1="0" y1="485.71" x2="500" y2="485.71"/>
<line x1="0" y1="478.57" x2="500" y2="478.57"/>
<line x1="0" y1="471.43" x2="500" y2="471.43"/>
<line x1="0" y1="464.29" x2="500" y2="464.29"/>
<line x1="0" y1="457.14" x2="500" y2="457.14"/>
<line x1="0" y1="450" x2="500" y2="450"/>
<line x1="0" y1="442.86" x2="500" y2="442.86"/>
<line x1="0" y1="435.71" x2="500" y2="435.71"/>
<line x1="0" y1="428.57" x2="500" y2="428.57"/>
<line x1="0" y1="421.43" x2="500" y2="421.43"/>
<line x1="0" y1="414.29" x2="500" y2="414.29"/>
<line x1="0" y1="407.14" x2="500" y2="407.14"/>
<line x1="0" y1="400" x2="500" y2="400"/>
<line x1="0" y1="392.86" x2="500" y2="392.86"/>
<line x1="0" y1="385.71" x2="500" y2="385.71"/>
<line x1="0" y1="378.57" x2="500" y2="378.57"/>
<line x1="0" y1="371.43" x2="500" y2="371.43"/>
<line x1="0" y1="364.29" x2="500" y2="364.29"/>
<line x1="0" y1="357.14" x2="500" y2="357.14"/>
<line x1="0" y1="350" x2="500" y2="350"/>
<line x1="0" y1="342.86" x2="500" y2="342.86"/>
<line x1="0" y1="335.71" x2="500" y2="335.71"/>
<line x1="0" y1="328.57" x2="500" y2="328.57"/>
<line x1="0" y1="321.43" x2="500" y2="321.43"/>
<line x1="0" y1="314.29" x2="500" y2="314.29"/>
<line x1="0" y1="307.14" x2="500" y2="307.14"/>
<line x1="0" y1="300" x2="500" y2="300"/>
<line x1="0" y1="292.86" x2="500" y2="292.86"/>
<line x1="0" y1="285.71" x2="500" y2="285.71"/>
<line x1="0" y1="278.57" x2="500" y2="278.57"/>
<line x1="0" y1="271.43" x2="500" y2="271.43"/>
<line x1="0" y1="264.29" x2="500" y2="264.29"/>
<line x1="0" y1="257.14" x2="500" y2="257.14"/>
<line x1="0" y1="250" x2="500" y2="250"/>
<line x1="0" y1="242.86" x2="500" y2="242.86"/>
<line x1="0" y1="235.71" x2="500" y2="235.71"/>
<line x1="0" y1="228.57" x2="500" y2="228.57"/>
<line x1="0" y1="221.43" x2="500" y2="221.43"/>
<line x1="0" y1="214.29" x2="500" y2="214.29"/>
<line x1="0" y1="207.14" x2="500" y2="207.14"/>
<line x1="0" y1="200" x2="500" y2="200"/>
<line x1="0" y1="192.86" x2="500" y2="192.86"/>
<line x1="0" y1="185.71" x2="500" y2="185.71"/>
<line x1="0" y1="178.57" x2="500" y2="178.57"/>
<line x1="0" y1="171.43" x2="500" y2="171.43"/>
<line x1="0" y1="164.29" x2="500" y2="164.29"/>
<line x1="0" y1="157.14" x2="500" y2="157.14"/>
<line x1="0" y1="150" x2="500" y2="150"/>
<line x1="0" y1="142.86" x2="500" y2="142.86"/>
<line x1="0" y1="135.71" x2="500" y2="135.71"/>
<line x1="0" y1="128.57" x2="500" y2="128.57"/>
<line x1="0" y1="121.43" x2="500" y2="121.43"/>
<line x1="0" y1="114.29" x2="500" y2="114.29"/>
<line x1="0" y1="107.14" x2="500" y2="107.14"/>
<line x1="0" y1="100.00" x2="500" y2="100.00"/>
<line x1="0" y1="92.86" x2="500" y2="92.86"/>
<line x1="0" y1="85.71" x2="500" y2="85.71"/>
<line x1="0" y1="78.57" x2="500" y2="78.57"/>
<line x1="0" y1="71.43" x2="500" y2="71.43"/>
<line x1="0" y1="64.29" x2="500" y2="64.29"/>
<line x1="0" y1="57.14" x2="500" y2="57.14"/>
<line x1="0" y1="50.00" x2="500" y2="50.00"/>
<line x1="0" y1="42.86" x2="500" y2="42.86"/>
<line x1="0" y1="35.71" x2="500" y2="35.71"/>
<line x1="0" y1="28.57" x2="500" y2="28.57"/>
<line x1="0" y1="21.43" x2="500" y2="21.43"/>
<line x1="0" y1="14.29" x2="500" y2="14.29"/>
<line x1="0" y1="7.14" x2="500" y2="7.14"/>
<line x1="0" y1="0.00" x2="500" y2="0.00"/>
</g>
<g id = "meshy" style="stroke-width:0.5; stroke:gray">
<line x1="0" y1="428.57" x2="500" y2="428.57"/>
<line x1="0" y1="357.14" x2="500" y2="357.14"/>
<line x1="0" y1="285.71" x2="500" y2="285.71"/>
<line x1="0" y1="214.29" x2="500" y2="214.29"/>
<line x1="0" y1="142.86" x2="500" y2="142.86"/>
<line x1="0" y1="71.43" x2="500" y2="71.43"/>
<line x1="0" y1="0.00" x2="500" y2="0.00"/>
</g>
<g id = "Curves" style="stroke-width:2; stroke:black; fill:none">
<path d="M0 35.71 C 57.58 81.39, 78.79 124.43, 95.50 167"/>
<path d="M95.50 167 C 117.23 143.43, 142.54 108.08, 166.50 107.50"/>
<path d="M166.50 107.50 C 213.29 106.85, 222.27 126.94, 415 322.36"/>
<path d="M415 322.36 C 449.34 292.87, 478.18 274.25, 500.00 266.07"/>
<path d="M0 35.71 C 6.33 66.01, 20.07 109.47, 38.50 167"/>
<path d="M38.50 167 C 7.29 268.84, 5.09 395.78, 0 500"/>
<path d="M500.00 266.07 C 485.37 287.10, 479.24 302.91, 470 322.36"/>
<path d="M470 322.36 C 494.88 366.60, 497.03 434.45, 500 500"/>
<line x1="38.50" y1="167" x2="166.50" y2="167"/>
<line x1="470" y1="322.36" x2="166.50" y2="322.36"/>
<line x1="166.50" y1="107.50" x2="166.50" y2="500"/>
</g>
<g id = "Elements" style="stroke-width:2; stroke:black; fill:none">
</g>
</svg>
<g id = "Points" style="stroke-width:0; fill:blue">
<circle cx="80" cy="55.71" r="4"/>
<text fill="black" x="85" y="50.71" dy="-0.1em" font-family="Arial" font-style = "italic"  text-anchor="start">a</text>
<text fill="black" x="575.00" y="281.07" dy="-0.1em" font-family="Arial" font-style = "italic"  text-anchor="end">b</text>
<text fill="black" x="175.50" y="192" dy="0.8em" font-family="Arial" font-style = "italic"  text-anchor="middle">c</text>
<circle cx="246.50" cy="127.50" r="4"/>
<text fill="black" x="246.50" y="122.50" dy="-0.1em" font-family="Arial" font-style = "italic"  text-anchor="middle">d</text>
<circle cx="495" cy="342.36" r="4"/>
<text fill="black" x="495" y="337.36" dy="-0.1em" font-family="Arial" font-style = "italic"  text-anchor="middle">e</text>
<text fill="black" x="123.50" y="182" dy="-0.1em" font-family="Arial" font-style = "italic"  text-anchor="start">f</text>
<text fill="black" x="85" y="515" dy="-0.1em" font-family="Arial" font-style = "italic"  text-anchor="start">g</text>
<text fill="black" x="555" y="342.36" dy="0.4em" font-family="Arial" font-style = "italic"  text-anchor="start">h</text>
<text fill="black" x="575" y="515" dy="-0.1em" font-family="Arial" font-style = "italic"  text-anchor="end">i</text>
<text fill="black" x="251.50" y="187" dy="0.4em" font-family="Arial" font-style = "italic"  text-anchor="start">j</text>
<text fill="black" x="241.50" y="342.36" dy="0.4em" font-family="Arial" font-style = "italic"  text-anchor="end">k</text>
<circle cx="430" cy="91.43" r="4"/>
<text fill="black" x="435" y="86.43" dy="-0.1em" font-family="Arial" font-style = "italic"  text-anchor="start">M</text>
<circle cx="330" cy="305.71" r="4"/>
<text fill="black" x="335" y="300.71" dy="-0.1em" font-family="Arial" font-style = "italic"  text-anchor="start">N</text>
<circle cx="430" cy="448.57" r="4"/>
<text fill="black" x="435" y="443.57" dy="-0.1em" font-family="Arial" font-style = "italic"  text-anchor="start">O</text>
<circle cx="95" cy="220" r="4"/>
<text fill="black" x="95" y="215" dy="-0.1em" font-family="Arial" font-style = "italic"  text-anchor="middle">P</text>
<circle cx="115" cy="87.53" r="4"/>
<text fill="black" x="120" y="82.53" dy="-0.1em" font-family="Arial" font-style = "italic"  text-anchor="start">R</text>
</g>
<polyline points="80, 20, 80, 520, 580, 520, 580, 20" style="stroke-width:1; stroke:black; fill:none"/>
<g id = "xlabel" >
<text fill="black" x="80" y="525" dy="0.8em" font-family="Arial" text-anchor="middle">0</text>
<text fill="black" x="180" y="525" dy="0.8em" font-family="Arial" text-anchor="middle">20</text>
<text fill="black" x="280" y="525" dy="0.8em" font-family="Arial" text-anchor="middle">40</text>
<text fill="black" x="380.00" y="525" dy="0.8em" font-family="Arial" text-anchor="middle">60</text>
<text fill="black" x="480" y="525" dy="0.8em" font-family="Arial" text-anchor="middle">80</text>
<text fill="black" x="580" y="525" dy="0.8em" font-family="Arial" text-anchor="middle">100</text>
</g>
<g id = "ylabel" >
<text fill="black" x="75" y="520" dy="0.4em" font-family="Arial" text-anchor="end">0</text>
<text fill="black" x="75" y="448.57" dy="0.4em" font-family="Arial" text-anchor="end">100</text>
<text fill="black" x="75" y="377.14" dy="0.4em" font-family="Arial" text-anchor="end">200</text>
<text fill="black" x="75" y="305.71" dy="0.4em" font-family="Arial" text-anchor="end">300</text>
<text fill="black" x="75" y="234.29" dy="0.4em" font-family="Arial" text-anchor="end">400</text>
<text fill="black" x="75" y="162.86" dy="0.4em" font-family="Arial" text-anchor="end">500</text>
<text fill="black" x="75" y="91.43" dy="0.4em" font-family="Arial" text-anchor="end">600</text>
<text fill="black" x="75" y="20.00" dy="0.4em" font-family="Arial" text-anchor="end">700</text>
</g>
<text fill="black" x="45" y="25.00" dy="0.8em" font-family="Arial" text-anchor="end"><tspan font-style="italic" >T</tspan>, °C</text>
<text fill="black" x="80" y="520" dy="0.8em" font-family="Arial" text-anchor="start"><tspan dy="2.5em">Mg</tspan></text>
<text fill="black" x="580" y="520" dy="0.8em" font-family="Arial" text-anchor="end"><tspan dy="2.5em">Pb</tspan></text>
<text fill="black" x="330" y="520" dy="0.8em" font-family="Arial" text-anchor="middle"><tspan dy="2.5em">Содержание Pb, % мол.</tspan></text>
</svg>
