<?xml version="1.0" encoding="Windows-1251" standalone="no"?>
<svg  version="1.1" viewbox="0 0 600 570" baseProfile = "full" xmlns = "http://www.w3.org/2000/svg" xmlns:xlink = "http://www.w3.org/1999/xlink" xmlns:ev="http://www.w3.org/2001/xml-events">
<svg  viewbox="0 0 500 500" width="500" height="500" x = "80" y = "20" > ""
<g id = "meshx2" style="stroke-width:0.3; stroke:gray">
<line x1="0" y1="500" x2="0" y2="0.00"/>
<line x1="10" y1="500" x2="10" y2="0.00"/>
<line x1="20" y1="500" x2="20" y2="0.00"/>
<line x1="30" y1="500" x2="30" y2="0.00"/>
<line x1="40" y1="500" x2="40" y2="0.00"/>
<line x1="50" y1="500" x2="50" y2="0.00"/>
<line x1="60.00" y1="500" x2="60.00" y2="0.00"/>
<line x1="70" y1="500" x2="70" y2="0.00"/>
<line x1="80" y1="500" x2="80" y2="0.00"/>
<line x1="90" y1="500" x2="90" y2="0.00"/>
<line x1="100.00" y1="500" x2="100.00" y2="0.00"/>
<line x1="110.00" y1="500" x2="110.00" y2="0.00"/>
<line x1="120.00" y1="500" x2="120.00" y2="0.00"/>
<line x1="130.00" y1="500" x2="130.00" y2="0.00"/>
<line x1="140.00" y1="500" x2="140.00" y2="0.00"/>
<line x1="150" y1="500" x2="150" y2="0.00"/>
<line x1="160" y1="500" x2="160" y2="0.00"/>
<line x1="170" y1="500" x2="170" y2="0.00"/>
<line x1="180.00" y1="500" x2="180.00" y2="0.00"/>
<line x1="190.00" y1="500" x2="190.00" y2="0.00"/>
<line x1="200.00" y1="500" x2="200.00" y2="0.00"/>
<line x1="210.00" y1="500" x2="210.00" y2="0.00"/>
<line x1="220.00" y1="500" x2="220.00" y2="0.00"/>
<line x1="230.00" y1="500" x2="230.00" y2="0.00"/>
<line x1="240.00" y1="500" x2="240.00" y2="0.00"/>
<line x1="250.00" y1="500" x2="250.00" y2="0.00"/>
<line x1="260.00" y1="500" x2="260.00" y2="0.00"/>
<line x1="270.00" y1="500" x2="270.00" y2="0.00"/>
<line x1="280.00" y1="500" x2="280.00" y2="0.00"/>
<line x1="290.00" y1="500" x2="290.00" y2="0.00"/>
<line x1="300.00" y1="500" x2="300.00" y2="0.00"/>
<line x1="310.00" y1="500" x2="310.00" y2="0.00"/>
<line x1="320.00" y1="500" x2="320.00" y2="0.00"/>
<line x1="330.00" y1="500" x2="330.00" y2="0.00"/>
<line x1="340.00" y1="500" x2="340.00" y2="0.00"/>
<line x1="350.00" y1="500" x2="350.00" y2="0.00"/>
<line x1="360.00" y1="500" x2="360.00" y2="0.00"/>
<line x1="370.00" y1="500" x2="370.00" y2="0.00"/>
<line x1="380.00" y1="500" x2="380.00" y2="0.00"/>
<line x1="390.00" y1="500" x2="390.00" y2="0.00"/>
<line x1="400.00" y1="500" x2="400.00" y2="0.00"/>
<line x1="410.00" y1="500" x2="410.00" y2="0.00"/>
<line x1="420.00" y1="500" x2="420.00" y2="0.00"/>
<line x1="430.00" y1="500" x2="430.00" y2="0.00"/>
<line x1="440.00" y1="500" x2="440.00" y2="0.00"/>
<line x1="450.00" y1="500" x2="450.00" y2="0.00"/>
<line x1="460.00" y1="500" x2="460.00" y2="0.00"/>
<line x1="470.00" y1="500" x2="470.00" y2="0.00"/>
<line x1="480.00" y1="500" x2="480.00" y2="0.00"/>
<line x1="490.00" y1="500" x2="490.00" y2="0.00"/>
</g>
<g id = "meshx" style="stroke-width:0.5; stroke:gray">
<line x1="0" y1="500" x2="0" y2="0.00"/>
<line x1="50" y1="500" x2="50" y2="0.00"/>
<line x1="100" y1="500" x2="100" y2="0.00"/>
<line x1="150.00" y1="500" x2="150.00" y2="0.00"/>
<line x1="200" y1="500" x2="200" y2="0.00"/>
<line x1="250" y1="500" x2="250" y2="0.00"/>
<line x1="300" y1="500" x2="300" y2="0.00"/>
<line x1="350" y1="500" x2="350" y2="0.00"/>
<line x1="400.00" y1="500" x2="400.00" y2="0.00"/>
<line x1="450.00" y1="500" x2="450.00" y2="0.00"/>
<line x1="500.00" y1="500" x2="500.00" y2="0.00"/>
</g>
<g id = "meshy2" style="stroke-width:0.3; stroke:gray">
<line x1="0" y1="491.07" x2="500" y2="491.07"/>
<line x1="0" y1="482.14" x2="500" y2="482.14"/>
<line x1="0" y1="473.21" x2="500" y2="473.21"/>
<line x1="0" y1="464.29" x2="500" y2="464.29"/>
<line x1="0" y1="455.36" x2="500" y2="455.36"/>
<line x1="0" y1="446.43" x2="500" y2="446.43"/>
<line x1="0" y1="437.50" x2="500" y2="437.50"/>
<line x1="0" y1="428.57" x2="500" y2="428.57"/>
<line x1="0" y1="419.64" x2="500" y2="419.64"/>
<line x1="0" y1="410.71" x2="500" y2="410.71"/>
<line x1="0" y1="401.79" x2="500" y2="401.79"/>
<line x1="0" y1="392.86" x2="500" y2="392.86"/>
<line x1="0" y1="383.93" x2="500" y2="383.93"/>
<line x1="0" y1="375" x2="500" y2="375"/>
<line x1="0" y1="366.07" x2="500" y2="366.07"/>
<line x1="0" y1="357.14" x2="500" y2="357.14"/>
<line x1="0" y1="348.21" x2="500" y2="348.21"/>
<line x1="0" y1="339.29" x2="500" y2="339.29"/>
<line x1="0" y1="330.36" x2="500" y2="330.36"/>
<line x1="0" y1="321.43" x2="500" y2="321.43"/>
<line x1="0" y1="312.50" x2="500" y2="312.50"/>
<line x1="0" y1="303.57" x2="500" y2="303.57"/>
<line x1="0" y1="294.64" x2="500" y2="294.64"/>
<line x1="0" y1="285.71" x2="500" y2="285.71"/>
<line x1="0" y1="276.79" x2="500" y2="276.79"/>
<line x1="0" y1="267.86" x2="500" y2="267.86"/>
<line x1="0" y1="258.93" x2="500" y2="258.93"/>
<line x1="0" y1="250" x2="500" y2="250"/>
<line x1="0" y1="241.07" x2="500" y2="241.07"/>
<line x1="0" y1="232.14" x2="500" y2="232.14"/>
<line x1="0" y1="223.21" x2="500" y2="223.21"/>
<line x1="0" y1="214.29" x2="500" y2="214.29"/>
<line x1="0" y1="205.36" x2="500" y2="205.36"/>
<line x1="0" y1="196.43" x2="500" y2="196.43"/>
<line x1="0" y1="187.50" x2="500" y2="187.50"/>
<line x1="0" y1="178.57" x2="500" y2="178.57"/>
<line x1="0" y1="169.64" x2="500" y2="169.64"/>
<line x1="0" y1="160.71" x2="500" y2="160.71"/>
<line x1="0" y1="151.79" x2="500" y2="151.79"/>
<line x1="0" y1="142.86" x2="500" y2="142.86"/>
<line x1="0" y1="133.93" x2="500" y2="133.93"/>
<line x1="0" y1="125.00" x2="500" y2="125.00"/>
<line x1="0" y1="116.07" x2="500" y2="116.07"/>
<line x1="0" y1="107.14" x2="500" y2="107.14"/>
<line x1="0" y1="98.21" x2="500" y2="98.21"/>
<line x1="0" y1="89.29" x2="500" y2="89.29"/>
<line x1="0" y1="80.36" x2="500" y2="80.36"/>
<line x1="0" y1="71.43" x2="500" y2="71.43"/>
<line x1="0" y1="62.50" x2="500" y2="62.50"/>
<line x1="0" y1="53.57" x2="500" y2="53.57"/>
<line x1="0" y1="44.64" x2="500" y2="44.64"/>
<line x1="0" y1="35.71" x2="500" y2="35.71"/>
<line x1="0" y1="26.79" x2="500" y2="26.79"/>
<line x1="0" y1="17.86" x2="500" y2="17.86"/>
<line x1="0" y1="8.93" x2="500" y2="8.93"/>
<line x1="0" y1="0.00" x2="500" y2="0.00"/>
</g>
<g id = "meshy" style="stroke-width:0.5; stroke:gray">
<line x1="0" y1="410.71" x2="500" y2="410.71"/>
<line x1="0" y1="321.43" x2="500" y2="321.43"/>
<line x1="0" y1="232.14" x2="500" y2="232.14"/>
<line x1="0" y1="142.86" x2="500" y2="142.86"/>
<line x1="0" y1="53.57" x2="500" y2="53.57"/>
</g>
<g id = "Curves" style="stroke-width:2; stroke:black; fill:none">
<path d="M0 85.89 C 118.76 146.05, 173.82 202.20, 215 251.79"/>
<path d="M215 251.79 C 278.10 129.46, 402.81 49.99, 500 15.36"/>
<path d="M0 85.89 C 12.27 128.76, 30.93 200.33, 67.50 251.79"/>
<path d="M67.50 251.79 C 24.68 328.05, 8.41 411.63, 0 500"/>
<path d="M492.50 251.79 C 500 303.57, 500 415.63, 500 500"/>
<line x1="67.50" y1="251.79" x2="492.50" y2="251.79"/>
<line x1="500" y1="15.36" x2="492.50" y2="251.79"/>
</g>
<g id = "Elements" style="stroke-width:2; stroke:black; fill:none">
</g>
</svg>
<g id = "Points" style="stroke-width:0; fill:blue">
<circle cx="80" cy="105.89" r="4"/>
<text fill="black" x="85" y="100.89" dy="-0.1em" font-family="Arial" font-style = "italic"  text-anchor="start">a</text>
<circle cx="295" cy="271.79" r="4"/>
<text fill="black" x="295" y="276.79" dy="0.8em" font-family="Arial" font-style = "italic"  text-anchor="middle">c</text>
<text fill="black" x="585" y="30.36" dy="-0.1em" font-family="Arial" font-style = "italic"  text-anchor="start">b</text>
<text fill="black" x="152.50" y="266.79" dy="-0.1em" font-family="Arial" font-style = "italic"  text-anchor="start">d</text>
<text fill="black" x="567.50" y="276.79" dy="0.8em" font-family="Arial" font-style = "italic"  text-anchor="end">e</text>
<text fill="black" x="85" y="515" dy="-0.1em" font-family="Arial" font-style = "italic"  text-anchor="start">f</text>
<text fill="black" x="575.00" y="515" dy="-0.1em" font-family="Arial" font-style = "italic"  text-anchor="end">g</text>
<circle cx="230" cy="91.43" r="4"/>
<text fill="black" x="235" y="86.43" dy="-0.1em" font-family="Arial" font-style = "italic"  text-anchor="start">K</text>
<circle cx="480" cy="83.01" r="4"/>
<text fill="black" x="475" y="78.01" dy="-0.1em" font-family="Arial" font-style = "italic"  text-anchor="end">L</text>
<circle cx="480" cy="271.79" r="4"/>
<text fill="black" x="485" y="266.79" dy="-0.1em" font-family="Arial" font-style = "italic"  text-anchor="start">M</text>
<circle cx="100" cy="305.71" r="4"/>
<text fill="black" x="100" y="300.71" dy="-0.1em" font-family="Arial" font-style = "italic"  text-anchor="middle">N</text>
<circle cx="530" cy="162.86" r="4"/>
<text fill="black" x="535" y="157.86" dy="-0.1em" font-family="Arial" font-style = "italic"  text-anchor="start">O</text>
<circle cx="180" cy="377.14" r="4"/>
<text fill="black" x="185" y="372.14" dy="-0.1em" font-family="Arial" font-style = "italic"  text-anchor="start">P</text>
</g>
<polyline points="80, 20, 80, 520, 580, 520, 580, 20" style="stroke-width:1; stroke:black; fill:none"/>
<g id = "xlabel" >
<text fill="black" x="80" y="525" dy="0.8em" font-family="Arial" text-anchor="middle">0</text>
<text fill="black" x="180" y="525" dy="0.8em" font-family="Arial" text-anchor="middle">20</text>
<text fill="black" x="280" y="525" dy="0.8em" font-family="Arial" text-anchor="middle">40</text>
<text fill="black" x="380.00" y="525" dy="0.8em" font-family="Arial" text-anchor="middle">60</text>
<text fill="black" x="480" y="525" dy="0.8em" font-family="Arial" text-anchor="middle">80</text>
<text fill="black" x="580" y="525" dy="0.8em" font-family="Arial" text-anchor="middle">100</text>
</g>
<g id = "ylabel" >
<text fill="black" x="75" y="520" dy="0.4em" font-family="Arial" text-anchor="end">0</text>
<text fill="black" x="75" y="430.71" dy="0.4em" font-family="Arial" text-anchor="end">50</text>
<text fill="black" x="75" y="341.43" dy="0.4em" font-family="Arial" text-anchor="end">100</text>
<text fill="black" x="75" y="252.14" dy="0.4em" font-family="Arial" text-anchor="end">150</text>
<text fill="black" x="75" y="162.86" dy="0.4em" font-family="Arial" text-anchor="end">200</text>
<text fill="black" x="75" y="73.57" dy="0.4em" font-family="Arial" text-anchor="end">250</text>
</g>
<text fill="black" x="45" y="25.00" dy="0.8em" font-family="Arial" text-anchor="end"><tspan font-style="italic" >T</tspan>, °C</text>
<text fill="black" x="80" y="520" dy="0.8em" font-family="Arial" text-anchor="start"><tspan dy="2.5em">Sn</tspan></text>
<text fill="black" x="580" y="520" dy="0.8em" font-family="Arial" text-anchor="end"><tspan dy="2.5em">Bi</tspan></text>
<text fill="black" x="330" y="520" dy="0.8em" font-family="Arial" text-anchor="middle"><tspan dy="2.5em">Содержание Bi, % мол.</tspan></text>
</svg>
